<?xml version="1.0" encoding="UTF-8"?> <svg xmlns="http://www.w3.org/2000/svg" xmlns:xlink="http://www.w3.org/1999/xlink" id="Слой_1" data-name="Слой 1" viewBox="0 0 13.78 8.2"> <defs> <style>.cls-1{fill:url(#linear-gradient);}.cls-2{fill:url(#linear-gradient-2);}</style> <linearGradient id="linear-gradient" x1="447.2" y1="239.41" x2="460.98" y2="239.41" gradientUnits="userSpaceOnUse"> <stop offset="0.19" stop-color="#724a98"></stop> <stop offset="1" stop-color="#38a6df"></stop> </linearGradient> <linearGradient id="linear-gradient-2" x1="451.51" y1="239.42" x2="456.67" y2="239.42" xlink:href="#linear-gradient"></linearGradient> </defs> <title>Безымянный-1</title> <path class="cls-1" d="M461,239.53c-.18.26-.34.54-.54.8a7.65,7.65,0,0,1-4.86,3,7.73,7.73,0,0,1-7.44-2.55,7.48,7.48,0,0,1-.88-1.21.35.35,0,0,1,0-.39,7.8,7.8,0,0,1,5.18-3.73,7.91,7.91,0,0,1,8.46,3.69.29.29,0,0,0,.08.13Zm-6.68-3.64a8.06,8.06,0,0,0-1.62.14,7.29,7.29,0,0,0-4.77,3.25.21.21,0,0,0,0,.27,7.32,7.32,0,0,0,7.52,3.26,7.19,7.19,0,0,0,4.86-3.27.18.18,0,0,0,0-.25A7.26,7.26,0,0,0,454.3,235.89Z" transform="translate(-447.2 -235.31)"></path> <path class="cls-2" d="M454.09,242a2.59,2.59,0,1,1,2.58-2.57A2.58,2.58,0,0,1,454.09,242Zm2-2.58a2,2,0,1,0-2,2A2,2,0,0,0,456.09,239.42Z" transform="translate(-447.2 -235.31)"></path> </svg> 