<?xml version="1.0" encoding="UTF-8"?> <svg xmlns="http://www.w3.org/2000/svg" width="214" height="58" viewBox="0 0 214 58" fill="none"> <path d="M101.324 31.8765C101.324 39.9999 95.8565 45.9067 88.3277 45.9067C84.8608 45.9067 81.9885 44.6631 80.1502 42.4937C79.988 44.5009 78.5283 45.9067 76.6292 45.9067C74.5679 45.9067 73 44.2847 73 42.1693V15.2647C73 13.1493 74.5679 11.5273 76.6833 11.5273C78.7445 11.5273 80.3124 13.0953 80.3124 15.2647V21.043C82.1507 19.0358 84.9689 17.8463 88.3277 17.8463C95.8565 17.8463 101.324 23.753 101.324 31.8765ZM93.9033 31.8224C93.9033 27.5985 90.977 24.4559 86.9693 24.4559C82.9617 24.4559 80.1975 27.4904 80.1975 31.8765C80.1975 36.2626 82.9076 39.243 86.9693 39.243C91.0311 39.243 93.9033 36.1545 93.9033 31.8224Z" fill="#30293F"></path> <path d="M132.196 30.4169V30.5791C132.196 32.8566 130.574 34.3164 128.188 34.3164H112.914C113.779 37.6753 116.489 39.6217 120.443 39.6217C122.396 39.6217 124.397 39.081 126.019 38.0537C126.559 37.7293 127.046 37.5671 127.587 37.5671C129.263 37.5671 130.567 38.8107 130.567 40.4935C130.567 41.6829 130.026 42.5547 128.729 43.4198C126.289 45.0418 123.369 45.9136 120.227 45.9136C111.779 45.9136 105.548 39.8987 105.548 31.8834C105.548 23.9222 111.563 17.8533 119.47 17.8533C126.782 17.8465 132.196 23.1585 132.196 30.4169ZM112.914 29.1666H125.1C124.991 25.97 122.714 23.7532 119.301 23.7532C116.111 23.7532 113.725 25.8618 112.914 29.1666Z" fill="#30293F"></path> <path d="M179.206 28.6257V42.1693C179.206 44.3387 177.638 45.9066 175.577 45.9066C173.462 45.9066 171.894 44.2846 171.894 42.1693V29.6597C171.894 26.4631 170.056 24.4626 167.129 24.4626C164.203 24.4626 162.202 26.5239 162.202 29.4975V42.1693C162.202 44.3387 160.635 45.9066 158.573 45.9066C156.458 45.9066 154.89 44.2846 154.89 42.1693V29.6597C154.89 26.4631 152.991 24.4626 150.125 24.4626C147.145 24.4626 145.199 26.5239 145.199 29.6597V42.1693C145.199 44.3387 143.631 45.9066 141.569 45.9066C139.454 45.9066 137.886 44.2846 137.886 42.1693V21.5363C137.886 19.421 139.454 17.853 141.515 17.853C143.191 17.853 144.496 18.9344 144.928 20.5631C146.767 18.833 149.26 17.853 152.187 17.853C155.654 17.853 158.418 19.2047 160.148 21.6985C162.263 19.3128 165.507 17.853 169.082 17.853C175.307 17.8463 179.206 22.0161 179.206 28.6257Z" fill="#30293F"></path> <path d="M213.437 31.8225C213.437 39.6216 207.043 45.8527 198.974 45.8527C190.959 45.8527 184.673 39.6756 184.673 31.8225C184.673 23.9694 190.959 17.8464 199.028 17.8464C207.043 17.8464 213.437 24.0235 213.437 31.8225ZM192.094 31.8766C192.094 36.1005 195.02 39.135 199.028 39.135C202.981 39.135 205.962 36.0464 205.962 31.8766C205.962 27.6527 202.981 24.5101 199.028 24.5101C195.02 24.5101 192.094 27.5986 192.094 31.8766Z" fill="#30293F"></path> <path d="M29.9201 46.6367L18.9176 39.7567C17.5051 38.8714 16.6468 37.3238 16.6468 35.6545V2.6944C16.6468 0.606099 14.3693 -0.684728 12.5783 0.383078L2.73156 6.26953C1.12985 7.2292 0.149902 8.95256 0.149902 10.8178V45.1769C0.149902 47.0422 1.10958 48.7723 2.69101 49.7522L13.5921 56.5308C15.4709 57.6999 17.8363 57.7202 19.7354 56.5848L29.8795 50.5159C31.3461 49.6508 31.3663 47.5423 29.9201 46.6367Z" fill="url(#paint0_linear_246_1040)"></path> <path d="M47.0388 17.1234L36.1377 10.3448C34.2589 9.17566 31.8935 9.15539 29.9945 10.2908L19.8503 16.3597C18.3905 17.2315 18.3702 19.3401 19.8098 20.2457L30.8122 27.1256C32.2247 28.011 33.083 29.5586 33.083 31.2279V48.9548C33.083 51.0431 35.3605 52.334 37.1515 51.2661L46.9983 45.3797C48.6 44.42 49.5799 42.6967 49.5799 40.8314V21.6987C49.5799 19.8334 48.6202 18.1033 47.0388 17.1234Z" fill="url(#paint1_linear_246_1040)"></path> <defs> <linearGradient id="paint0_linear_246_1040" x1="-8.53542" y1="8.38149" x2="37.6967" y2="52.4236" gradientUnits="userSpaceOnUse"> <stop offset="0.1891" stop-color="#A334E9"></stop> <stop offset="1" stop-color="#29A9EA"></stop> </linearGradient> <linearGradient id="paint1_linear_246_1040" x1="2.0243" y1="-2.70314" x2="48.2563" y2="41.339" gradientUnits="userSpaceOnUse"> <stop offset="0.1891" stop-color="#A334E9"></stop> <stop offset="1" stop-color="#29A9EA"></stop> </linearGradient> </defs> </svg> 